<svg xmlns="http://www.w3.org/2000/svg" viewBox="0 0 72 72"><rect width="72" height="72" fill="#061926"/>
  <defs>
    <linearGradient id="g1" x1="0" y1="0" x2="0" y2="1">
      <stop offset="0%" stop-color="#00d4ff"/>
      <stop offset="100%" stop-color="#0066a0"/>
    </linearGradient>
  </defs>
  <g transform="translate(-162, -361.6111)">
    <path d="M198,364.4236l27,11.25v24.75c0,15.75-12.375,24.75-27,30.375-14.625-5.625-27-14.625-27-30.375v-24.75l27-11.25Z" fill="none" stroke="url(#g1)" stroke-linejoin="round" stroke-width="3"/>
    <line x1="180" y1="380.1736" x2="216" y2="380.1736" fill="none" opacity=".2" stroke="#00d4ff" stroke-width="1.5"/>
    <line x1="177.75" y1="386.9236" x2="218.25" y2="386.9236" fill="none" opacity=".35" stroke="#00d4ff" stroke-width="1.5"/>
    <line x1="176.625" y1="393.6736" x2="219.375" y2="393.6736" fill="none" opacity=".5" stroke="#00d4ff" stroke-width="2"/>
    <line x1="176.625" y1="400.4236" x2="219.375" y2="400.4236" fill="none" opacity=".65" stroke="#00d4ff" stroke-width="2"/>
    <line x1="178.875" y1="407.1736" x2="217.125" y2="407.1736" fill="none" opacity=".45" stroke="#00d4ff" stroke-width="1.5"/>
    <line x1="183.375" y1="413.9236" x2="212.625" y2="413.9236" fill="none" opacity=".3" stroke="#00d4ff" stroke-width="1.5"/>
    <path d="M199.1363,398.573c.1687.1969.27.45.27.7256v4.5c0,.6187-.5063,1.125-1.125,1.125h-.5625c-.6187,0-1.125-.5063-1.125-1.125v-4.5c0-.2756.1012-.5288.27-.7256-1.6256-.4894-2.8012-1.9912-2.8012-3.7744,0-2.1769,1.7606-3.9375,3.9375-3.9375s3.9375,1.7606,3.9375,3.9375c0,1.7831-1.1756,3.285-2.8012,3.7744Z" fill="#00d4ff" opacity=".9"/>
  </g>
</svg>
