<svg xmlns="http://www.w3.org/2000/svg" width="420" height="72" viewBox="0 0 420 72">
  <defs>
    <linearGradient id="g1" x1="0" y1="0" x2="0" y2="1">
      <stop offset="0%" stop-color="#00d4ff"/>
      <stop offset="100%" stop-color="#0077a8"/>
    </linearGradient>
  </defs>
  <g transform="translate(0, 4)">
    <path d="M32 2 L58 14 L58 38 C58 52 46 60 32 66 C18 60 6 52 6 38 L6 14 Z" 
          fill="none" stroke="url(#g1)" stroke-width="2.5" stroke-linejoin="round"/>
    <line x1="16" y1="22" x2="48" y2="22" stroke="#00d4ff" stroke-width="1.2" opacity="0.3"/>
    <line x1="14" y1="29" x2="50" y2="29" stroke="#00d4ff" stroke-width="1.2" opacity="0.45"/>
    <line x1="12" y1="36" x2="52" y2="36" stroke="#00d4ff" stroke-width="1.5" opacity="0.6"/>
    <line x1="14" y1="43" x2="50" y2="43" stroke="#00d4ff" stroke-width="1.2" opacity="0.45"/>
    <line x1="18" y1="50" x2="46" y2="50" stroke="#00d4ff" stroke-width="1.2" opacity="0.3"/>
    <circle cx="32" cy="33" r="4" fill="#00d4ff" opacity="0.9"/>
    <rect x="30.5" y="36" width="3" height="8" rx="1" fill="#00d4ff" opacity="0.9"/>
  </g>
  <text x="78" y="44" font-family="Oxanium, sans-serif" font-weight="700" font-size="36" fill="#e8eaf0" letter-spacing="4">FORTRESS</text>
  <text x="80" y="60" font-family="Saira, sans-serif" font-weight="300" font-size="12" fill="#6b7280" letter-spacing="6">CRYPT</text>
</svg>
