<svg xmlns="http://www.w3.org/2000/svg" viewBox="0 0 72 72">
  <g transform="translate(-81, -361.6111)">
    <rect x="108" y="381.8611" width="18" height="7.875" rx="2" ry="2" fill="#00d4ff" opacity=".4" stroke="#00d4ff" stroke-width=".5"/>
    <rect x="105.75" y="391.9861" width="22.5" height="7.875" rx="2" ry="2" fill="#00d4ff" opacity=".5" stroke="#00d4ff" stroke-width=".5"/>
    <rect x="103.5" y="402.1111" width="27" height="7.875" rx="2" ry="2" fill="#00d4ff" opacity=".6" stroke="#00d4ff" stroke-width=".5"/>
    <rect x="101.25" y="412.2361" width="31.5" height="7.875" rx="2" ry="2" fill="#00d4ff" opacity=".75" stroke="#00d4ff" stroke-width=".5"/>
    <rect x="99" y="422.3611" width="36" height="7.875" rx="2" ry="2" fill="#00d4ff" opacity=".9" stroke="#00d4ff" stroke-width=".5"/>
    <path d="M124.88,368.2311v3.63c0,.55-.45,1-1,1h-.34c.14.26.21.56.21.87v3.88c0,1.1-.9,2-2,2h-9.5c-1.1,0-2-.9-2-2v-3.88c0-.31.07-.61.21-.87h-.34c-.55,0-1-.45-1-1v-3.63c0-.55.45-1,1-1h1.38c.55,0,1,.45,1,1v3.5h2.81v-5.74c0-.56.45-1,1-1h1.38c.55,0,1,.44,1,1v5.74h2.81v-3.5c0-.55.45-1,1-1h1.38c.55,0,1,.45,1,1Z" fill="#00d4ff" opacity=".25"/>
    <path d="M117.65,407.9111c.12.12.19.28.19.46v2.11c0,.35-.28.63-.63.63h-.42c-.35,0-.63-.28-.63-.63v-2.11c0-.1801.07-.34.19-.46-.77-.27-1.3199-1.01-1.3199-1.86,0-1.09.8799-1.97,1.97-1.97s1.97.88,1.97,1.97c0,.85-.55,1.59-1.3199,1.86Z" fill="#0a0c10"/>
  </g>
</svg>
