<svg xmlns="http://www.w3.org/2000/svg" viewBox="0 0 284.774 72">
  <defs>
    <linearGradient id="g1" x1="0" y1="0" x2="0" y2="1">
      <stop offset="0%" stop-color="#0077a8"/>
      <stop offset="100%" stop-color="#004d6e"/>
    </linearGradient>
  </defs>
  <rect width="284.774" height="72" fill="#e8eaf0"/>
  <g transform="translate(-298.613, -185.2515)">
    <path d="M327.3742,189.2515l26,12v24c0,14-12,22-26,28-14-6-26-14-26-28v-24l26-12Z" fill="none" stroke="url(#g1)" stroke-linejoin="round" stroke-width="2.5"/>
    <line x1="311.3742" y1="209.2515" x2="343.3742" y2="209.2515" fill="none" opacity=".25" stroke="#0077a8" stroke-width="1.2"/>
    <line x1="309.3742" y1="216.2515" x2="345.3742" y2="216.2515" fill="none" opacity=".4" stroke="#0077a8" stroke-width="1.2"/>
    <line x1="307.3742" y1="223.2515" x2="347.3742" y2="223.2515" fill="none" opacity=".55" stroke="#0077a8" stroke-width="1.5"/>
    <line x1="309.3742" y1="230.2515" x2="345.3742" y2="230.2515" fill="none" opacity=".4" stroke="#0077a8" stroke-width="1.2"/>
    <line x1="313.3742" y1="237.2515" x2="341.3742" y2="237.2515" fill="none" opacity=".25" stroke="#0077a8" stroke-width="1.2"/>
    <path d="M328.8274,223.9711c.04.09.05.18.05.28v6c0,.55-.45,1-1,1h-1c-.56,0-1-.45-1-1v-6c0-.1.0099-.19.05-.28-1.49-.57-2.55-2.02-2.55-3.72,0-2.21,1.79-4,4-4s4,1.79,4,4c0,1.7-1.06,3.15-2.55,3.72Z" fill="#0077ab"/>
    <text transform="translate(373.3747 227.2517)" fill="#0f172a" font-family="Oxanium, sans-serif" font-size="36" font-weight="700" letter-spacing=".111em"><tspan x="0" y="0">FORTRESS</tspan></text>
    <text transform="translate(375.3747 243.2517)" fill="#64748b" font-family="Saira, sans-serif" font-size="12" font-weight="400"><tspan x="0" y="0" letter-spacing=".5em">C</tspan><tspan x="12.8999" y="0" letter-spacing=".483em">R</tspan><tspan x="26.8682" y="0" letter-spacing=".5em">YP</tspan><tspan x="54" y="0" letter-spacing=".485em">T</tspan></text>
  </g>
</svg>
