<svg xmlns="http://www.w3.org/2000/svg" viewBox="0 0 218.0888 50.8387">
  <rect width="218.0888" height="50.8387" fill="#fff"/>
  <g transform="translate(0, -285.9357)">
    <path d="M21.8392,287.8951l20,9v17c0,10-9,16-20,20-11-4-20-10-20-20v-17l20-9Z" fill="none" stroke="#0f172a" stroke-linejoin="round" stroke-width="2"/>
    <line x1="9.8392" y1="301.8951" x2="33.8392" y2="301.8951" fill="none" opacity=".2" stroke="#0f172a"/>
    <line x1="7.8392" y1="307.8951" x2="35.8392" y2="307.8951" fill="none" opacity=".35" stroke="#0f172a"/>
    <line x1="6.8392" y1="313.8951" x2="36.8392" y2="313.8951" fill="none" opacity=".5" stroke="#0f172a" stroke-width="1.2"/>
    <line x1="8.8392" y1="319.8951" x2="34.8392" y2="319.8951" fill="none" opacity=".3" stroke="#0f172a"/>
    <path d="M22.7146,313.7555c.07.13.12.28.12.44v4.4c0,.44-.35.8-.8.8h-.4c-.44,0-.8-.36-.8-.8v-4.4c0-.16.05-.3.13-.43-1.23-.37-2.13-1.51-2.13-2.87,0-1.66,1.35-3,3-3,1.66,0,3,1.34,3,3,0,1.35-.89,2.49-2.12,2.86Z" fill="#0f172a"/>
    <text transform="translate(55.8389 316.895)" fill="#0f172a" font-family="Oxanium, sans-serif" font-size="28" font-weight="700" letter-spacing=".107em"><tspan x="0" y="0">FORTRESS</tspan></text>
    <text transform="translate(57.3389 330.895)" fill="#0f172a" font-family="Saira, sans-serif" font-size="10" font-weight="400" opacity=".8"><tspan x="0" y="0" letter-spacing=".5em">C</tspan><tspan x="10.75" y="0" letter-spacing=".483em">R</tspan><tspan x="22.3901" y="0" letter-spacing=".5em">YP</tspan><tspan x="45" y="0" letter-spacing=".485em">T</tspan></text>
  </g>
</svg>
