<svg xmlns="http://www.w3.org/2000/svg" viewBox="0 0 285.12 72">
  <defs>
    <linearGradient id="g1" x1="0" y1="0" x2="0" y2="1">
      <stop offset="0%" stop-color="#00d4ff"/>
      <stop offset="100%" stop-color="#0077a8"/>
    </linearGradient>
  </defs>
  <rect width="285.12" height="72" fill="#061926"/>
  <g transform="translate(0, -185.2515)">
    <path d="M28.9347,189.2515l26,12v24c0,14-12,22-26,28-14-6-26-14-26-28v-24l26-12Z" fill="none" stroke="url(#g1)" stroke-linejoin="round" stroke-width="2.5"/>
    <line x1="12.9347" y1="209.2515" x2="44.9347" y2="209.2515" fill="none" opacity=".3" stroke="#00d4ff" stroke-width="1.2"/>
    <line x1="10.9347" y1="216.2515" x2="46.9347" y2="216.2515" fill="none" opacity=".45" stroke="#00d4ff" stroke-width="1.2"/>
    <line x1="8.9347" y1="223.2515" x2="48.9347" y2="223.2515" fill="none" opacity=".6" stroke="#00d4ff" stroke-width="1.5"/>
    <line x1="10.9347" y1="230.2515" x2="46.9347" y2="230.2515" fill="none" opacity=".45" stroke="#00d4ff" stroke-width="1.2"/>
    <line x1="14.9347" y1="237.2515" x2="42.9347" y2="237.2515" fill="none" opacity=".3" stroke="#00d4ff" stroke-width="1.2"/>
    <path d="M30.3905,223.9857c.03.09.04.1801.04.27v6c0,.55-.44,1-1,1h-1c-.55,0-1-.45-1-1v-6c0-.1.0099-.19.04-.28-1.48-.59-2.54-2.04-2.54-3.72,0-2.21,1.8-4,4-4,2.21,0,4,1.79,4,4,0,1.69-1.05,3.14-2.54,3.73Z" fill="#00d4ff"/>
    <text transform="translate(74.9346 227.2516)" fill="#e8eaf0" font-family="Oxanium, sans-serif" font-size="36" font-weight="700" letter-spacing=".111em"><tspan x="0" y="0">FORTRESS</tspan></text>
    <text transform="translate(76.9346 243.2516)" fill="#6b7280" font-family="Saira, sans-serif" font-size="12" font-weight="400"><tspan x="0" y="0" letter-spacing=".5em">C</tspan><tspan x="12.8999" y="0" letter-spacing=".483em">R</tspan><tspan x="26.8682" y="0" letter-spacing=".5em">YP</tspan><tspan x="54" y="0" letter-spacing=".485em">T</tspan></text>
  </g>
</svg>
